<svg width="1119" height="253" viewBox="0 0 1119 253" fill="none" xmlns="http://www.w3.org/2000/svg">
<path d="M1118.48 35V216.818H1085.28L1006.18 102.383H1004.85V216.818H966.404V35H1000.14L1078.62 149.347H1080.22V35H1118.48Z" fill="white"/>
<path d="M713.392 35.1818V217H674.951V35.1818H713.392Z" fill="white"/>
<path d="M614.766 87.4723C614.055 80.3109 611.007 74.7474 605.621 70.782C600.236 66.8165 592.926 64.8338 583.693 64.8338C577.419 64.8338 572.122 65.7216 567.802 67.4972C563.481 69.2136 560.167 71.6106 557.859 74.6882C555.61 77.7659 554.485 81.2578 554.485 85.1641C554.367 88.4193 555.047 91.2602 556.527 93.6868C558.066 96.1134 560.167 98.2145 562.83 99.9901C565.494 101.706 568.571 103.216 572.063 104.518C575.555 105.761 579.284 106.826 583.249 107.714L599.585 111.62C607.515 113.396 614.795 115.763 621.424 118.722C628.053 121.682 633.794 125.322 638.647 129.642C643.5 133.963 647.259 139.053 649.922 144.912C652.644 150.771 654.035 157.489 654.094 165.065C654.035 176.192 651.194 185.839 645.572 194.006C640.008 202.115 631.959 208.418 621.424 212.916C610.948 217.355 598.312 219.575 583.516 219.575C568.838 219.575 556.053 217.326 545.163 212.827C534.332 208.329 525.869 201.671 519.773 192.852C513.736 183.974 510.569 172.996 510.273 159.916H547.472C547.886 166.012 549.632 171.102 552.71 175.185C555.846 179.21 560.019 182.258 565.227 184.33C570.495 186.342 576.443 187.348 583.072 187.348C589.582 187.348 595.234 186.401 600.028 184.507C604.882 182.613 608.64 179.979 611.303 176.606C613.967 173.232 615.298 169.356 615.298 164.976C615.298 160.892 614.085 157.459 611.658 154.678C609.291 151.896 605.799 149.528 601.183 147.575C596.625 145.622 591.032 143.847 584.403 142.249L564.606 137.277C549.277 133.548 537.173 127.719 528.295 119.788C519.418 111.857 515.008 101.174 515.068 87.7387C515.008 76.7301 517.938 67.1125 523.857 58.8857C529.834 50.6589 538.032 44.2372 548.448 39.6208C558.865 35.0043 570.702 32.696 583.96 32.696C597.454 32.696 609.232 35.0043 619.293 39.6208C629.414 44.2372 637.286 50.6589 642.908 58.8857C648.531 67.1125 651.431 76.6414 651.609 87.4723H614.766Z" fill="white"/>
<path d="M451.064 35.1818H489.505V153.257C489.505 166.515 486.339 178.115 480.006 188.058C473.733 198.001 464.943 205.755 453.639 211.318C442.335 216.822 429.166 219.575 414.133 219.575C399.04 219.575 385.842 216.822 374.537 211.318C363.233 205.755 354.444 198.001 348.17 188.058C341.897 178.115 338.76 166.515 338.76 153.257V35.1818H377.201V149.972C377.201 156.897 378.71 163.052 381.729 168.438C384.806 173.824 389.127 178.056 394.69 181.133C400.254 184.211 406.734 185.75 414.133 185.75C421.59 185.75 428.071 184.211 433.575 181.133C439.139 178.056 443.43 173.824 446.448 168.438C449.526 163.052 451.064 156.897 451.064 149.972V35.1818Z" fill="white"/>
<path d="M201.914 217V35.1818H240.355V185.306H318.303V217H201.914Z" fill="white"/>
<path d="M65.0684 217V35.1818H103.509V185.306H181.457V217H65.0684Z" fill="white"/>
<path d="M38.4411 35.1818V217H0V35.1818H38.4411Z" fill="white"/>
<path d="M784.468 73.8879C784.468 73.8879 791.01 54.504 799.264 44.7684C806.609 36.1055 811.856 31.5457 822.238 26.9084C834.426 21.4647 842.875 20.5056 856.115 22.2493C870.887 24.1949 881.154 27.4023 890.77 38.168C907.063 56.4085 905.505 75.8213 905.505 75.8213M776.29 93.3009L822.238 74.3373M829.442 71.3642L826.168 79.2155C824.011 84.3891 826.527 90.325 831.745 92.3726L894.664 117.064M829.442 71.3642L822.238 74.3373M829.442 71.3642L835.192 57.5731M712.431 130.962C712.431 130.962 695.249 121.549 696.466 111.937C698.028 99.6021 712.437 98.4043 756.821 108.831C791.866 117.064 798.097 118.88 838.982 134.457C875.67 148.434 877.65 148.168 913.355 164.741C935.939 175.224 955.905 185.921 954.315 196.966C952.49 209.653 926.983 207.449 926.983 207.449M914.523 207.449C903.524 207.593 897.253 206.985 886.487 204.732C876.65 202.673 871.182 200.942 861.956 196.966M890.77 11.7663C897.097 6.1478 902.546 4.05784 911.018 4.00109C927.069 3.89356 935.193 11.7661 941.78 31.1793C948.367 50.5925 949.415 68.4447 948.4 86.7005C947.168 108.831 939.341 141.057 931.266 159.693C917.778 190.825 900.443 215.587 889.991 226.078C877.08 239.038 862.831 248.79 847.938 248.993C837.407 249.137 830.75 247.025 822.238 240.84M776.29 130.962C777.628 142.119 777.269 148.745 774.733 159.693C771.717 172.715 768.324 180.03 760.326 190.754M791.866 151.928C791.866 151.928 796.671 164.484 810.167 172.894C819.513 178.718 826.936 180.745 831.584 181.048M896.222 128.244C896.222 128.244 884.478 142.99 879.416 151.928C873.764 161.908 863.437 172.708 852.549 176.381C845.455 178.773 838.982 181.048 831.584 181.048M822.238 74.3373L819.541 81.7828C817.142 88.4084 820.458 95.7397 827.018 98.3124L901.746 127.618C905.673 129.158 910.145 128.068 912.923 124.893L913.355 124.399M822.238 74.3373L826.142 64.7263C827.097 62.3754 828.909 60.4753 831.213 59.4112L835.192 57.5731M913.355 124.399V124.399C916.501 125.634 920.032 123.92 921.009 120.684L928.487 95.9096C930.039 90.7668 927.251 85.3163 922.172 83.5658L840.217 55.3175C838.209 54.6255 836.009 55.613 835.192 57.5731V57.5731M913.355 124.399L906.346 121.649M886.487 83.5944L894.664 117.064M894.664 117.064L906.346 121.649M898.169 87.477L906.346 121.649M724.83 139.108C724.83 139.108 726.715 140.765 734.175 144.544C739.954 147.471 747.025 149.591 747.025 149.591M827.69 209.391C827.69 209.391 824.081 199.39 825.353 193.084C826.399 187.898 828.846 185.293 831.584 181.048M835.867 148.434C838.333 151.928 846.069 158.218 857.283 155.423M855.336 130.962C863.903 134.457 866.94 133.761 866.628 118.538" stroke="white" stroke-width="8" stroke-linecap="round" stroke-linejoin="round"/>
</svg>
