<svg width="340" height="324" viewBox="0 0 340 324" fill="none" xmlns="http://www.w3.org/2000/svg">
<path d="M117.079 94.0014C117.079 94.0014 125.48 69.0389 136.079 56.5014C145.51 45.3454 152.247 39.4732 165.579 33.5014C181.23 26.491 192.078 25.2558 209.079 27.5014C228.048 30.0069 241.232 34.1374 253.579 48.0014C274.5 71.4915 272.5 96.4912 272.5 96.4912M106.579 119.001L165.579 94.5801M174.829 90.7514L169.492 103.59C167.343 108.759 169.855 114.684 175.063 116.734L258.579 149.604M174.829 90.7514L165.579 94.5801M174.829 90.7514L182.213 72.9912M24.5793 167.501C24.5793 167.501 2.51655 155.379 4.07926 143.001C6.08492 127.116 24.5869 125.574 81.5796 139.001C126.58 149.604 134.58 151.942 187.08 172.001C234.19 190.001 236.732 189.659 282.579 211.001C311.579 224.501 337.217 238.277 335.176 252.501C332.831 268.839 300.08 266.001 300.08 266.001M284.08 266.001C269.956 266.186 261.903 265.403 248.079 262.501C235.448 259.85 228.427 257.621 216.579 252.501M253.579 14.0014C261.703 6.76593 268.701 4.07449 279.579 4.0014C300.189 3.86292 310.621 14.0011 319.079 39.0014C327.537 64.0017 328.883 86.9917 327.579 110.501C325.998 139.001 315.948 180.502 305.579 204.501C288.259 244.592 266 276.481 252.579 289.991C236 306.681 217.703 319.239 198.579 319.501C185.057 319.687 176.509 316.967 165.579 309.001M106.579 167.501C108.297 181.87 107.836 190.402 104.58 204.501C100.706 221.271 96.3494 230.691 86.0793 244.501M126.58 194.501C126.58 194.501 132.75 210.67 150.08 221.501C162.08 229.001 171.611 231.611 177.58 232.001M260.58 164.001C260.58 164.001 245.5 182.991 239 194.501C231.742 207.354 218.482 221.262 204.5 225.991C195.392 229.072 187.08 232.001 177.58 232.001M165.579 94.5801L160.872 107.614C158.482 114.233 161.792 121.552 168.341 124.127L269.518 163.921C273.452 165.468 277.935 164.374 280.714 161.188L282.579 159.05M165.579 94.5801L171.018 81.1511C171.97 78.7995 173.781 76.8978 176.083 75.8313L182.213 72.9912M282.579 159.05V159.05C286.617 160.639 291.151 158.439 292.402 154.283L302.812 119.697C304.358 114.559 301.574 109.117 296.503 107.364L188.675 70.09C186.093 69.1973 183.262 70.4683 182.213 72.9912V72.9912M282.579 159.05L273.579 155.507M248.079 106.501L258.579 149.604M258.579 149.604L273.579 155.507M263.079 111.501L273.579 155.507M40.5 177.991C40.5 177.991 42.9204 180.125 52.5 184.991C59.9204 188.761 69 191.491 69 191.491M172.579 268.501C172.579 268.501 167.946 255.623 169.579 247.501C170.922 240.823 174.065 237.469 177.58 232.001M183.08 190.001C186.246 194.501 196.18 202.601 210.58 199.001M208.08 167.501C219.08 172.001 222.98 171.106 222.58 151.501" stroke="white" stroke-width="8" stroke-linecap="round" stroke-linejoin="round"/>
</svg>
