<svg width="1084" height="188" viewBox="0 0 1084 188" fill="none" xmlns="http://www.w3.org/2000/svg">
<path d="M1083.25 3.18176V185H1050.05L970.945 70.5646H969.613V185H931.172V3.18176H964.908L1043.39 117.528H1044.99V3.18176H1083.25Z" fill="white"/>
<path d="M907.696 94.0909C907.696 113.918 903.938 130.786 896.421 144.695C888.964 158.603 878.784 169.227 865.881 176.566C853.038 183.846 838.597 187.486 822.557 187.486C806.4 187.486 791.899 183.816 779.056 176.477C766.213 169.138 756.062 158.514 748.605 144.606C741.148 130.697 737.419 113.859 737.419 94.0909C737.419 74.2638 741.148 57.3959 748.605 43.4873C756.062 29.5786 766.213 18.9844 779.056 11.7046C791.899 4.36555 806.4 0.696045 822.557 0.696045C838.597 0.696045 853.038 4.36555 865.881 11.7046C878.784 18.9844 888.964 29.5786 896.421 43.4873C903.938 57.3959 907.696 74.2638 907.696 94.0909ZM868.722 94.0909C868.722 81.2477 866.799 70.4167 862.952 61.598C859.164 52.7794 853.807 46.0914 846.883 41.5341C839.958 36.9768 831.85 34.6982 822.557 34.6982C813.265 34.6982 805.157 36.9768 798.232 41.5341C791.307 46.0914 785.922 52.7794 782.075 61.598C778.287 70.4167 776.393 81.2477 776.393 94.0909C776.393 106.934 778.287 117.765 782.075 126.584C785.922 135.402 791.307 142.09 798.232 146.648C805.157 151.205 813.265 153.484 822.557 153.484C831.85 153.484 839.958 151.205 846.883 146.648C853.807 142.09 859.164 135.402 862.952 126.584C866.799 117.765 868.722 106.934 868.722 94.0909Z" fill="white"/>
<path d="M713.988 3.18176V185H675.547V3.18176H713.988Z" fill="white"/>
<path d="M615.361 55.4723C614.651 48.3109 611.603 42.7474 606.217 38.782C600.831 34.8165 593.522 32.8338 584.289 32.8338C578.015 32.8338 572.718 33.7216 568.398 35.4972C564.077 37.2136 560.763 39.6106 558.454 42.6882C556.205 45.7659 555.081 49.2578 555.081 53.1641C554.962 56.4193 555.643 59.2602 557.123 61.6868C558.662 64.1134 560.763 66.2145 563.426 67.9901C566.089 69.7065 569.167 71.2157 572.659 72.5178C576.151 73.7607 579.88 74.826 583.845 75.7138L600.18 79.6201C608.111 81.3956 615.391 83.763 622.02 86.7223C628.649 89.6816 634.39 93.3215 639.243 97.6421C644.096 101.963 647.854 107.053 650.518 112.912C653.24 118.771 654.631 125.489 654.69 133.065C654.631 144.192 651.79 153.839 646.167 162.006C640.604 170.115 632.555 176.418 622.02 180.916C611.544 185.355 598.908 187.575 584.111 187.575C569.433 187.575 556.649 185.326 545.759 180.827C534.928 176.329 526.465 169.671 520.368 160.852C514.331 151.974 511.165 140.996 510.869 127.916H548.067C548.482 134.012 550.228 139.102 553.305 143.185C556.442 147.21 560.615 150.258 565.823 152.33C571.091 154.342 577.039 155.348 583.667 155.348C590.178 155.348 595.83 154.401 600.624 152.507C605.477 150.613 609.236 147.979 611.899 144.606C614.562 141.232 615.894 137.356 615.894 132.976C615.894 128.892 614.681 125.459 612.254 122.678C609.887 119.896 606.395 117.528 601.778 115.575C597.221 113.622 591.628 111.847 584.999 110.249L565.202 105.277C549.872 101.548 537.769 95.7185 528.891 87.7877C520.013 79.8568 515.604 69.1738 515.663 55.7387C515.604 44.7301 518.534 35.1125 524.452 26.8857C530.43 18.6589 538.627 12.2372 549.044 7.62077C559.461 3.00429 571.298 0.696045 584.555 0.696045C598.05 0.696045 609.827 3.00429 619.889 7.62077C630.01 12.2372 637.881 18.6589 643.504 26.8857C649.127 35.1125 652.027 44.6414 652.204 55.4723H615.361Z" fill="white"/>
<path d="M451.66 3.18176H490.101V121.257C490.101 134.515 486.935 146.115 480.602 156.058C474.328 166.001 465.539 173.755 454.235 179.318C442.93 184.822 429.761 187.575 414.728 187.575C399.636 187.575 386.438 184.822 375.133 179.318C363.829 173.755 355.04 166.001 348.766 156.058C342.492 146.115 339.355 134.515 339.355 121.257V3.18176H377.797V117.972C377.797 124.897 379.306 131.052 382.324 136.438C385.402 141.824 389.722 146.056 395.286 149.133C400.849 152.211 407.33 153.75 414.728 153.75C422.186 153.75 428.667 152.211 434.171 149.133C439.734 146.056 444.025 141.824 447.044 136.438C450.121 131.052 451.66 124.897 451.66 117.972V3.18176Z" fill="white"/>
<path d="M202.51 185V3.18176H240.951V153.306H318.898V185H202.51Z" fill="white"/>
<path d="M65.6641 185V3.18176H104.105V153.306H182.053V185H65.6641Z" fill="white"/>
<path d="M39.0368 3.18176V185H0.595703V3.18176H39.0368Z" fill="white"/>
</svg>
